<svg width="61" height="60" viewBox="0 0 61 60" fill="none" xmlns="http://www.w3.org/2000/svg">
<rect x="0.5" width="60" height="60" rx="8" fill="#2E68EA"/>
<path d="M28.8333 34.9997H32.1667C33.0507 34.9997 33.8986 34.6485 34.5237 34.0234C35.1488 33.3982 35.5 32.5504 35.5 31.6663C35.5 30.7823 35.1488 29.9344 34.5237 29.3093C33.8986 28.6842 33.0507 28.333 32.1667 28.333H27.1667C26.1667 28.333 25.3333 28.6663 24.8333 29.333L15.5 38.333" stroke="white" stroke-width="2" stroke-linecap="round" stroke-linejoin="round"/>
<path d="M22.1665 45.0005L24.8332 42.6671C25.3332 42.0005 26.1665 41.6671 27.1665 41.6671H33.8332C35.6665 41.6671 37.3332 41.0005 38.4998 39.6671L46.1665 32.3338C46.8097 31.726 47.185 30.8876 47.21 30.0031C47.235 29.1185 46.9076 28.2603 46.2998 27.6171C45.692 26.974 44.8537 26.5986 43.9691 26.5736C43.0846 26.5486 42.2263 26.876 41.5832 27.4838L34.5832 33.9838" stroke="white" stroke-width="2" stroke-linecap="round" stroke-linejoin="round"/>
<path d="M13.8335 36.667L23.8335 46.667" stroke="white" stroke-width="2" stroke-linecap="round" stroke-linejoin="round"/>
<path d="M37.1668 29.8337C39.8362 29.8337 42.0002 27.6697 42.0002 25.0003C42.0002 22.3309 39.8362 20.167 37.1668 20.167C34.4975 20.167 32.3335 22.3309 32.3335 25.0003C32.3335 27.6697 34.4975 29.8337 37.1668 29.8337Z" stroke="white" stroke-width="2" stroke-linecap="round" stroke-linejoin="round"/>
<path d="M20.5 23.333C23.2614 23.333 25.5 21.0944 25.5 18.333C25.5 15.5716 23.2614 13.333 20.5 13.333C17.7386 13.333 15.5 15.5716 15.5 18.333C15.5 21.0944 17.7386 23.333 20.5 23.333Z" stroke="white" stroke-width="2" stroke-linecap="round" stroke-linejoin="round"/>
</svg>
