<svg width="108" height="67" viewBox="0 0 108 67" fill="none" xmlns="http://www.w3.org/2000/svg">
<mask id="mask0_995_1575" style="mask-type:luminance" maskUnits="userSpaceOnUse" x="0" y="0" width="108" height="67">
<path d="M107.827 0.460938H0V66.0779H107.827V0.460938Z" fill="white"/>
</mask>
<g mask="url(#mask0_995_1575)">
<path d="M72.4693 9.98003C74.9288 12.0049 76.7327 14.7136 77.6527 17.7637C78.5728 20.8138 78.5676 24.0682 77.638 27.1154C76.7083 30.1626 74.8959 32.8656 72.43 34.8827C69.964 36.8997 66.9553 38.1402 63.7843 38.4473C60.6133 38.7543 57.4225 38.1141 54.6153 36.6076C51.8082 35.101 49.5109 32.7959 48.0139 29.9837C46.517 27.1715 45.8876 23.9785 46.2053 20.8086C46.5231 17.6386 47.7738 14.6341 49.7992 12.175C52.5148 8.8784 56.4286 6.79524 60.6798 6.38362C64.931 5.972 69.1716 7.26562 72.4693 9.98003Z" stroke="white" stroke-width="3" stroke-linecap="round" stroke-linejoin="round"/>
<path d="M72.4693 9.98003C74.9288 12.0049 76.7327 14.7136 77.6527 17.7637C78.5728 20.8138 78.5676 24.0682 77.638 27.1154C76.7083 30.1626 74.8959 32.8656 72.43 34.8827C69.964 36.8997 66.9553 38.1402 63.7843 38.4473C60.6133 38.7543 57.4225 38.1141 54.6153 36.6076C51.8082 35.101 49.5109 32.7959 48.0139 29.9837C46.517 27.1715 45.8876 23.9785 46.2053 20.8086C46.5231 17.6386 47.7738 14.6341 49.7992 12.175C52.5148 8.8784 56.4286 6.79524 60.6798 6.38362C64.931 5.972 69.1716 7.26562 72.4693 9.98003Z" stroke="white" stroke-width="3" stroke-linecap="round" stroke-linejoin="round"/>
<path d="M72.4693 9.98003C74.9288 12.0049 76.7327 14.7136 77.6527 17.7637C78.5728 20.8138 78.5676 24.0682 77.638 27.1154C76.7083 30.1626 74.8959 32.8656 72.43 34.8827C69.964 36.8997 66.9553 38.1402 63.7843 38.4473C60.6133 38.7543 57.4225 38.1141 54.6153 36.6076C51.8082 35.101 49.5109 32.7959 48.0139 29.9837C46.517 27.1715 45.8876 23.9785 46.2053 20.8086C46.5231 17.6386 47.7738 14.6341 49.7992 12.175C52.5148 8.8784 56.4286 6.79524 60.6798 6.38362C64.931 5.972 69.1716 7.26562 72.4693 9.98003Z" stroke="white" stroke-width="3"/>
<path d="M79.6739 36.7792L75.3789 33.2422" stroke="white" stroke-width="3" stroke-linecap="round" stroke-linejoin="round"/>
<path d="M104.887 50.3601C105.211 50.6274 105.415 51.0121 105.456 51.43C105.496 51.8478 105.369 52.2646 105.103 52.5891L100.067 58.7041C99.9348 58.8647 99.7723 58.9977 99.5888 59.0955C99.4052 59.1932 99.2042 59.2539 98.9972 59.274C98.7902 59.294 98.5813 59.2731 98.3824 59.2124C98.1834 59.1517 97.9985 59.0523 97.8379 58.9201L77.6629 42.3041C77.3387 42.0367 77.1338 41.6516 77.0933 41.2333C77.0528 40.815 77.18 40.3977 77.4469 40.0731L82.4819 33.9551C82.7496 33.6313 83.1347 33.4268 83.5528 33.3863C83.971 33.3458 84.3881 33.4727 84.7129 33.7391L104.887 50.3601Z" stroke="white" stroke-width="3" stroke-linecap="round" stroke-linejoin="round"/>
<path d="M8.9043 44.4629H62.6463" stroke="white" stroke-width="3"/>
<path d="M28.332 54.7129H43.219" stroke="white" stroke-width="3"/>
<path d="M51.8274 35.1133C48.7199 32.5458 46.6885 28.906 46.1348 24.9132C45.5811 20.9204 46.5454 16.8652 48.8369 13.549C51.1285 10.2327 54.5807 7.89677 58.5113 7.00271C62.4419 6.10865 66.5648 6.72156 70.0654 8.72031V7.90031C70.0654 6.55336 69.5304 5.26154 68.5782 4.30892C67.6259 3.35629 66.3343 2.82084 64.9874 2.82031H7.43438C6.08786 2.82137 4.79687 3.35709 3.84521 4.30968C2.89355 5.26228 2.35911 6.5538 2.35938 7.90031V58.6393C2.35885 59.3062 2.48972 59.9667 2.7445 60.583C2.99928 61.1993 3.37299 61.7593 3.84427 62.2312C4.31556 62.703 4.87518 63.0774 5.49118 63.3329C6.10718 63.5884 6.76749 63.7201 7.43438 63.7203H64.9874C66.3341 63.72 67.6255 63.185 68.5778 62.2327C69.53 61.2805 70.0651 59.989 70.0654 58.6423V36.6443C67.2295 38.271 63.9655 38.9959 60.7077 38.7224C57.4498 38.4489 54.3524 37.1901 51.8274 35.1133Z" stroke="white" stroke-width="3"/>
</g>
</svg>
