<svg width="60" height="60" viewBox="0 0 60 60" fill="none" xmlns="http://www.w3.org/2000/svg">
<rect width="60" height="60" rx="8" fill="#26B961"/>
<path d="M30.0002 46.6663C39.2049 46.6663 46.6668 39.2044 46.6668 29.9997C46.6668 20.7949 39.2049 13.333 30.0002 13.333C20.7954 13.333 13.3335 20.7949 13.3335 29.9997C13.3335 39.2044 20.7954 46.6663 30.0002 46.6663Z" stroke="white" stroke-width="2" stroke-linecap="round" stroke-linejoin="round"/>
<path d="M36.6668 23.333H26.6668C25.7828 23.333 24.9349 23.6842 24.3098 24.3093C23.6847 24.9344 23.3335 25.7823 23.3335 26.6663C23.3335 27.5504 23.6847 28.3982 24.3098 29.0234C24.9349 29.6485 25.7828 29.9997 26.6668 29.9997H33.3335C34.2176 29.9997 35.0654 30.3509 35.6905 30.976C36.3156 31.6011 36.6668 32.449 36.6668 33.333C36.6668 34.2171 36.3156 35.0649 35.6905 35.69C35.0654 36.3152 34.2176 36.6663 33.3335 36.6663H23.3335" stroke="white" stroke-width="2" stroke-linecap="round" stroke-linejoin="round"/>
<path d="M30 40V20" stroke="white" stroke-width="2" stroke-linecap="round" stroke-linejoin="round"/>
</svg>
