<svg width="80" height="73" viewBox="0 0 80 73" fill="none" xmlns="http://www.w3.org/2000/svg">
<mask id="mask0_995_1589" style="mask-type:luminance" maskUnits="userSpaceOnUse" x="0" y="0" width="80" height="73">
<path d="M79.911 0.386719H0V72.1857H79.911V0.386719Z" fill="white"/>
</mask>
<g mask="url(#mask0_995_1589)">
<path d="M54.5466 2.36328C48.7154 2.36443 43.0952 4.54445 38.7884 8.47563C34.4817 12.4068 31.7993 17.8054 31.2676 23.6123C36.3666 24.8419 40.904 27.7502 44.1505 31.8699C47.3971 35.9895 49.1641 41.0811 49.1676 46.3263C49.1676 47.0483 49.1246 47.7593 49.0596 48.4653C52.2707 49.2412 55.6099 49.3278 58.8569 48.7192C62.104 48.1107 65.1852 46.8209 67.8974 44.9348C70.6097 43.0488 72.8914 40.6093 74.5922 37.7772C76.293 34.945 77.3743 31.7846 77.7647 28.5042C78.1551 25.2238 77.8459 21.8979 76.8573 18.7457C75.8688 15.5935 74.2233 12.6866 72.0295 10.2166C69.8357 7.74662 67.1433 5.76965 64.1298 4.41599C61.1163 3.06233 57.8501 2.36272 54.5466 2.36328Z" stroke="#283E90" stroke-width="3"/>
<path d="M58.2218 25.7488H50.9788C50.6327 25.7491 50.29 25.6812 49.9703 25.5489C49.6506 25.4166 49.36 25.2226 49.1153 24.978C48.8706 24.7334 48.6765 24.4429 48.5441 24.1232C48.4117 23.8035 48.3436 23.4609 48.3438 23.1148V18.7258C48.3436 18.3797 48.4117 18.037 48.544 17.7172C48.6764 17.3974 48.8705 17.1068 49.1152 16.862C49.3599 16.6172 49.6504 16.423 49.9702 16.2905C50.2899 16.158 50.6326 16.0898 50.9788 16.0898H58.2218C58.921 16.0898 59.5915 16.3675 60.086 16.8618C60.5805 17.3562 60.8585 18.0266 60.8587 18.7258" stroke="#283E90" stroke-width="3"/>
<path d="M50.9788 25.75H58.2218C58.5679 25.7499 58.9107 25.8179 59.2306 25.9503C59.5504 26.0826 59.8411 26.2767 60.086 26.5214C60.3308 26.766 60.5251 27.0566 60.6577 27.3763C60.7903 27.6961 60.8586 28.0388 60.8587 28.385V32.776C60.8582 33.475 60.5802 34.1452 60.0857 34.6393C59.5912 35.1334 58.9208 35.411 58.2218 35.411H50.9788C50.2799 35.411 49.6097 35.1334 49.1155 34.6392C48.6214 34.1451 48.3438 33.4748 48.3438 32.776" stroke="#283E90" stroke-width="3"/>
<path d="M54.6016 16.1984V11.1504" stroke="#283E90" stroke-width="3"/>
<path d="M54.6016 16.1984V11.1504" stroke="#283E90" stroke-width="3"/>
<path d="M54.6016 40.3498V35.3008" stroke="#283E90" stroke-width="3"/>
<path d="M54.6016 40.3498V35.3008" stroke="#283E90" stroke-width="3"/>
<path d="M48.7506 46.8236C48.7502 51.4492 47.3782 55.9708 44.8081 59.8166C42.238 63.6625 38.5852 66.6599 34.3117 68.4298C30.0381 70.1997 25.3357 70.6626 20.799 69.76C16.2623 68.8575 12.0952 66.6299 8.82445 63.3591C5.55374 60.0882 3.32637 55.921 2.42399 51.3842C1.52161 46.8475 1.98474 42.1451 3.75483 37.8716C5.52492 33.5981 8.52246 29.9455 12.3684 27.3755C16.2144 24.8056 20.736 23.4338 25.3616 23.4336C28.4332 23.4336 31.4747 24.0386 34.3124 25.2141C37.1502 26.3895 39.7286 28.1125 41.9005 30.2844C44.0724 32.4564 45.7952 35.0349 46.9705 37.8727C48.1459 40.7105 48.7508 43.752 48.7506 46.8236Z" stroke="#283E90" stroke-width="3"/>
<path d="M28.9835 46.8231H21.7395C21.3935 46.8234 21.0509 46.7554 20.7312 46.6231C20.4115 46.4909 20.121 46.2969 19.8764 46.0522C19.6317 45.8076 19.4377 45.5171 19.3054 45.1974C19.1732 44.8777 19.1052 44.5351 19.1055 44.1891V39.7991C19.1052 39.453 19.1731 39.1102 19.3054 38.7904C19.4376 38.4705 19.6316 38.1798 19.8762 37.9349C20.1208 37.6901 20.4112 37.4958 20.7309 37.3632C21.0507 37.2306 21.3934 37.1622 21.7395 37.1621H28.9835C29.6825 37.1626 30.3527 37.4407 30.8468 37.9352C31.3409 38.4297 31.6185 39.1001 31.6185 39.7991" stroke="#283E90" stroke-width="3"/>
<path d="M21.7395 46.8242H28.9835C29.3295 46.824 29.6722 46.8919 29.9919 47.0242C30.3117 47.1564 30.6022 47.3504 30.8469 47.5951C31.0916 47.8397 31.2858 48.1301 31.4181 48.4498C31.5505 48.7695 31.6186 49.1122 31.6185 49.4582V53.8502C31.6185 54.1962 31.5503 54.5388 31.4179 54.8584C31.2854 55.1781 31.0913 55.4685 30.8466 55.7131C30.6019 55.9577 30.3115 56.1517 29.9918 56.284C29.6721 56.4163 29.3295 56.4844 28.9835 56.4842H21.7395C21.0409 56.4842 20.3709 56.2067 19.8769 55.7127C19.383 55.2188 19.1055 54.5488 19.1055 53.8502" stroke="#283E90" stroke-width="3"/>
<path d="M25.3633 37.2756V32.2266" stroke="#283E90" stroke-width="3"/>
<path d="M25.3633 37.2756V32.2266" stroke="#283E90" stroke-width="3"/>
<path d="M25.3633 61.424V56.375" stroke="#283E90" stroke-width="3"/>
<path d="M25.3633 61.424V56.375" stroke="#283E90" stroke-width="3"/>
</g>
</svg>
